<svg width="24" height="24" viewBox="0 0 24 24" fill="none" xmlns="http://www.w3.org/2000/svg">
<g clip-path="url(#clip0_29_198)">
<path d="M8.53393 0.253088C8.95179 -0.0890993 9.6 -0.0844118 10.0179 0.257776C11.4964 1.47184 12.8839 2.77965 14.1804 4.19528C14.7696 3.52028 15.4393 2.78434 16.1625 2.18434C16.5857 1.83746 17.2393 1.83746 17.6625 2.18903C19.5161 3.7359 21.0857 5.77965 22.1893 7.72028C23.2768 9.63278 24 11.5875 24 12.9656C24 18.9468 18.6536 24 12 24C5.27143 24 0 18.9422 0 12.9609C0 11.1609 0.953572 8.96246 2.43214 6.78746C3.92679 4.57965 6.0375 2.27809 8.53393 0.253088ZM12.0911 19.5C13.4464 19.5 14.6464 19.1718 15.7768 18.5156C18.0321 17.1375 18.6375 14.3812 17.2821 12.2156C17.0411 11.7937 16.425 11.7656 16.0768 12.1218L14.7268 13.4953C14.3732 13.8515 13.7357 13.8422 13.4036 13.4718C12.5196 12.4875 10.9393 10.7297 10.0393 9.73121C9.70179 9.35621 9.05893 9.35153 8.71607 9.72653C6.90536 11.7187 5.99464 12.975 5.99464 14.3859C6 17.5968 8.71071 19.5 12.0911 19.5Z" fill="#FF642F"/>
</g>
<defs>
<clipPath id="clip0_29_198">
<rect width="24" height="24" fill="white"/>
</clipPath>
</defs>
</svg>
