<svg width="41" height="41" viewBox="0 0 41 41" fill="none" xmlns="http://www.w3.org/2000/svg">
<g clip-path="url(#clip0_11_134)">
<path d="M14.7232 0.921804C15.4196 0.351491 16.5 0.359304 17.1964 0.929616C19.6607 2.95305 21.9732 5.13274 24.1339 7.49212C25.1161 6.36712 26.2321 5.14055 27.4375 4.14055C28.1429 3.56243 29.2321 3.56243 29.9375 4.14837C33.0268 6.72649 35.6429 10.1327 37.4821 13.3671C39.2946 16.5546 40.5 19.8124 40.5 22.1093C40.5 32.0781 31.5893 40.4999 20.5 40.4999C9.28571 40.4999 0.5 32.0702 0.5 22.1015C0.5 19.1015 2.08929 15.4374 4.55357 11.8124C7.04464 8.13274 10.5625 4.2968 14.7232 0.921804ZM20.6518 32.9999C22.9107 32.9999 24.9107 32.4531 26.7946 31.3593C30.5536 29.0624 31.5625 24.4687 29.3036 20.8593C28.9018 20.1562 27.875 20.1093 27.2946 20.7031L25.0446 22.9921C24.4554 23.5859 23.3929 23.5702 22.8393 22.9531C21.3661 21.3124 18.7321 18.3827 17.2321 16.7187C16.6696 16.0937 15.5982 16.0859 15.0268 16.7109C12.0089 20.0312 10.4911 22.1249 10.4911 24.4765C10.5 29.8281 15.0179 32.9999 20.6518 32.9999Z" fill="#FF642F"/>
</g>
<defs>
<clipPath id="clip0_11_134">
<rect width="40" height="40" fill="white" transform="translate(0.5 0.5)"/>
</clipPath>
</defs>
</svg>
