<svg width="41" height="41" viewBox="0 0 41 41" fill="none" xmlns="http://www.w3.org/2000/svg">
<g clip-path="url(#clip0_11_138)">
<path d="M36.75 20.5C36.75 24.8098 35.038 28.943 31.9905 31.9905C28.943 35.038 24.8098 36.75 20.5 36.75C16.1902 36.75 12.057 35.038 9.00951 31.9905C5.96205 28.943 4.25 24.8098 4.25 20.5C4.25 16.1902 5.96205 12.057 9.00951 9.00951C12.057 5.96205 16.1902 4.25 20.5 4.25C24.8098 4.25 28.943 5.96205 31.9905 9.00951C35.038 12.057 36.75 16.1902 36.75 20.5ZM0.5 20.5C0.5 25.8043 2.60714 30.8914 6.35786 34.6421C10.1086 38.3929 15.1957 40.5 20.5 40.5C25.8043 40.5 30.8914 38.3929 34.6421 34.6421C38.3929 30.8914 40.5 25.8043 40.5 20.5C40.5 15.1957 38.3929 10.1086 34.6421 6.35786C30.8914 2.60714 25.8043 0.5 20.5 0.5C15.1957 0.5 10.1086 2.60714 6.35786 6.35786C2.60714 10.1086 0.5 15.1957 0.5 20.5ZM18.625 9.875V20.5C18.625 21.125 18.9375 21.7109 19.4609 22.0625L26.9609 27.0625C27.8203 27.6406 28.9844 27.4062 29.5625 26.5391C30.1406 25.6719 29.9062 24.5156 29.0391 23.9375L22.375 19.5V9.875C22.375 8.83594 21.5391 8 20.5 8C19.4609 8 18.625 8.83594 18.625 9.875Z" fill="#FF642F"/>
</g>
<defs>
<clipPath id="clip0_11_138">
<rect width="40" height="40" fill="white" transform="translate(0.5 0.5)"/>
</clipPath>
</defs>
</svg>
