<svg width="41" height="41" viewBox="0 0 41 41" fill="none" xmlns="http://www.w3.org/2000/svg">
<g clip-path="url(#clip0_11_136)">
<path d="M20.5 20.5C23.531 20.5 26.4379 19.4464 28.5812 17.5711C30.7245 15.6957 31.9286 13.1522 31.9286 10.5C31.9286 7.84783 30.7245 5.3043 28.5812 3.42893C26.4379 1.55357 23.531 0.5 20.5 0.5C17.469 0.5 14.5621 1.55357 12.4188 3.42893C10.2755 5.3043 9.07143 7.84783 9.07143 10.5C9.07143 13.1522 10.2755 15.6957 12.4188 17.5711C14.5621 19.4464 17.469 20.5 20.5 20.5ZM16.4196 24.25C7.625 24.25 0.5 30.4844 0.5 38.1797C0.5 39.4609 1.6875 40.5 3.15179 40.5H37.8482C39.3125 40.5 40.5 39.4609 40.5 38.1797C40.5 30.4844 33.375 24.25 24.5804 24.25H16.4196Z" fill="#FF642F"/>
</g>
<defs>
<clipPath id="clip0_11_136">
<rect width="40" height="40" fill="white" transform="translate(0.5 0.5)"/>
</clipPath>
</defs>
</svg>
